<svg version="1.1" xmlns="http://www.w3.org/2000/svg" style="display: block;" viewBox="0 0 2048 2048" width="1024" height="1024" preserveAspectRatio="none">
<defs>
	<linearGradient id="Gradient1" gradientUnits="userSpaceOnUse" x1="1070.42" y1="564.709" x2="1047.6" y2="544.537">
		<stop class="stop0" offset="0" stop-opacity="1" stop-color="rgb(110,109,110)"/>
		<stop class="stop1" offset="1" stop-opacity="1" stop-color="rgb(131,130,131)"/>
	</linearGradient>
	<linearGradient id="Gradient2" gradientUnits="userSpaceOnUse" x1="558.04" y1="931.206" x2="554.091" y2="930.425">
		<stop class="stop0" offset="0" stop-opacity="1" stop-color="rgb(41,42,43)"/>
		<stop class="stop1" offset="1" stop-opacity="1" stop-color="rgb(77,76,78)"/>
	</linearGradient>
	<linearGradient id="Gradient3" gradientUnits="userSpaceOnUse" x1="1496.04" y1="991.081" x2="1502.13" y2="990.568">
		<stop class="stop0" offset="0" stop-opacity="1" stop-color="rgb(40,39,40)"/>
		<stop class="stop1" offset="1" stop-opacity="1" stop-color="rgb(101,99,100)"/>
	</linearGradient>
	<linearGradient id="Gradient4" gradientUnits="userSpaceOnUse" x1="1854.17" y1="874.258" x2="1870.19" y2="862.222">
		<stop class="stop0" offset="0" stop-opacity="1" stop-color="rgb(92,90,95)"/>
		<stop class="stop1" offset="1" stop-opacity="1" stop-color="rgb(127,125,124)"/>
	</linearGradient>
	<linearGradient id="Gradient5" gradientUnits="userSpaceOnUse" x1="1011.77" y1="502.205" x2="1039.02" y2="511.401">
		<stop class="stop0" offset="0" stop-opacity="1" stop-color="rgb(64,59,74)"/>
		<stop class="stop1" offset="1" stop-opacity="1" stop-color="rgb(103,105,92)"/>
	</linearGradient>
	<linearGradient id="Gradient6" gradientUnits="userSpaceOnUse" x1="1870.27" y1="1156.96" x2="1878.74" y2="1157.03">
		<stop class="stop0" offset="0" stop-opacity="1" stop-color="rgb(86,83,87)"/>
		<stop class="stop1" offset="1" stop-opacity="1" stop-color="rgb(116,116,116)"/>
	</linearGradient>
	<linearGradient id="Gradient7" gradientUnits="userSpaceOnUse" x1="1162.09" y1="1883.24" x2="1164.24" y2="1893.31">
		<stop class="stop0" offset="0" stop-opacity="1" stop-color="rgb(57,55,57)"/>
		<stop class="stop1" offset="1" stop-opacity="1" stop-color="rgb(98,95,100)"/>
	</linearGradient>
	<linearGradient id="Gradient8" gradientUnits="userSpaceOnUse" x1="1871.41" y1="1013.98" x2="1890.29" y2="1026.48">
		<stop class="stop0" offset="0" stop-opacity="1" stop-color="rgb(79,79,87)"/>
		<stop class="stop1" offset="1" stop-opacity="1" stop-color="rgb(122,121,118)"/>
	</linearGradient>
	<linearGradient id="Gradient9" gradientUnits="userSpaceOnUse" x1="1873.04" y1="1083.78" x2="1888.2" y2="1081.95">
		<stop class="stop0" offset="0" stop-opacity="1" stop-color="rgb(130,127,129)"/>
		<stop class="stop1" offset="1" stop-opacity="1" stop-color="rgb(162,161,163)"/>
	</linearGradient>
	<linearGradient id="Gradient10" gradientUnits="userSpaceOnUse" x1="1645.87" y1="1629.92" x2="1652.11" y2="1635.89">
		<stop class="stop0" offset="0" stop-opacity="1" stop-color="rgb(60,59,62)"/>
		<stop class="stop1" offset="1" stop-opacity="1" stop-color="rgb(145,143,145)"/>
	</linearGradient>
	<linearGradient id="Gradient11" gradientUnits="userSpaceOnUse" x1="1026.8" y1="223.503" x2="1014.72" y2="226.012">
		<stop class="stop0" offset="0" stop-opacity="1" stop-color="rgb(129,125,126)"/>
		<stop class="stop1" offset="1" stop-opacity="1" stop-color="rgb(163,164,166)"/>
	</linearGradient>
	<linearGradient id="Gradient12" gradientUnits="userSpaceOnUse" x1="188.651" y1="971.812" x2="170.349" y2="965.188">
		<stop class="stop0" offset="0" stop-opacity="1" stop-color="rgb(109,108,108)"/>
		<stop class="stop1" offset="1" stop-opacity="1" stop-color="rgb(142,141,144)"/>
	</linearGradient>
	<linearGradient id="Gradient13" gradientUnits="userSpaceOnUse" x1="203.218" y1="1014.08" x2="225.653" y2="1031.14">
		<stop class="stop0" offset="0" stop-opacity="1" stop-color="rgb(127,123,128)"/>
		<stop class="stop1" offset="1" stop-opacity="1" stop-color="rgb(164,165,165)"/>
	</linearGradient>
	<linearGradient id="Gradient14" gradientUnits="userSpaceOnUse" x1="156.962" y1="1260.14" x2="246.926" y2="1186.95">
		<stop class="stop0" offset="0" stop-opacity="1" stop-color="rgb(68,66,69)"/>
		<stop class="stop1" offset="1" stop-opacity="1" stop-color="rgb(115,113,114)"/>
	</linearGradient>
	<linearGradient id="Gradient15" gradientUnits="userSpaceOnUse" x1="1016.32" y1="1606.23" x2="1026.68" y2="1606.72">
		<stop class="stop0" offset="0" stop-opacity="1" stop-color="rgb(40,40,40)"/>
		<stop class="stop1" offset="1" stop-opacity="1" stop-color="rgb(68,66,70)"/>
	</linearGradient>
</defs>
<path transform="translate(0,0)" fill="rgb(235,235,235)" d="M 0 0 L 92.382 0 L 2048 0 L 2048 2048 L 68.602 2048 L 0 2048 L 0 1849.87 L 0 1834.11 L 0 1371.43 L 0 1355.88 L 0 474.173 L 0 460.097 L 0 327.339 L 0 319.393 L 0 91.3521 L 0 82.3942 L 0 0 z"/>
<path transform="translate(0,0)" fill="rgb(84,49,32)" d="M 0 0 L 92.382 0 L 72.9476 1596.58 L 69.7294 1908.29 C 69.2805 1952.16 67.3545 2004.68 68.602 2048 L 0 2048 L 0 1849.87 L 0 1834.11 L 0 1371.43 L 0 1355.88 L 0 474.173 L 0 460.097 L 0 327.339 L 0 319.393 L 0 91.3521 L 0 82.3942 L 0 0 z"/>
<path transform="translate(0,0)" fill="rgb(92,54,36)" d="M 0 82.3942 L 0.391018 81.3932 C 2.02234 77.1281 2.32234 75.7885 3.07148 71.3016 C 4.7624 69.4791 5.58088 68.4689 8.23506 68.1099 C 14.3236 67.2866 22.699 74.1622 27.8426 71.3486 C 35.1177 67.369 62.2942 68.5211 72.1734 68.0015 C 72.142 79.6018 71.8764 79.6765 82.6401 85.0736 C 84.3508 88.0792 83.8956 86.4117 83.3157 90.3906 C 76.0369 96.7109 47.6142 93.6317 37.0409 93.6834 C 28.6553 93.7244 6.53941 93.8918 0 91.3521 L 0 82.3942 z"/>
<path transform="translate(0,0)" fill="rgb(92,54,36)" d="M 0 319.393 C 6.89807 315.169 5.59131 315.222 12.5756 320.54 C 18.8532 321.767 22.0991 317.58 28.3206 316.073 C 32.5979 315.038 35.1556 314.913 39.523 314.784 C 41.7974 318.589 42.2439 324.066 37.4181 325.664 C 31.3926 327.66 23.0545 324.94 17.2155 327.435 C 14.1928 329.698 9.84184 333.237 6.36157 335.666 C 3.84276 333.952 2.23228 330.164 0 327.339 L 0 319.393 z"/>
<path transform="translate(0,0)" fill="rgb(92,54,36)" d="M 14.8639 1839.13 C 17.3366 1837.09 19.1922 1835.69 21.3193 1833.24 C 25.7401 1832.49 33.036 1835.42 35.0493 1839.45 C 31.3813 1840.15 28.7128 1835.32 22.689 1833.98 L 22.1919 1835.4 C 24.9377 1839.33 30.8072 1841.84 35.237 1843.9 C 30.8658 1843.2 29.8729 1843.18 25.922 1841.41 L 23.9052 1841.52 L 19.7555 1846.9 C 13.3581 1853.23 8.43731 1850.93 0 1849.87 L 0 1834.11 C 6.23469 1835.31 9.12059 1836.71 14.8639 1839.13 z"/>
<path transform="translate(0,0)" fill="rgb(92,54,36)" d="M 0 1355.88 L 1.61439 1355.99 C 10.6655 1356.59 22.7262 1353.23 28.0243 1355.98 C 28.5263 1359.25 27.0658 1361.26 25.1379 1364.03 C 20.3351 1365.36 18.0642 1363.28 13.9256 1360.76 C 7.0013 1365.06 11.8957 1373.2 0 1371.43 L 0 1355.88 z"/>
<path transform="translate(0,0)" fill="rgb(92,54,36)" d="M 0 460.097 C 4.02038 459.392 6.13438 458.822 10.1639 459.064 L 12.0127 460.421 C 11.4348 464.627 3.47136 469.798 0 474.173 L 0 460.097 z"/>
<path transform="translate(0,0)" fill="rgb(126,87,65)" d="M 19.7555 1846.9 L 23.9052 1841.52 L 25.922 1841.41 C 27.4948 1845.99 29.0505 1848.55 25.5763 1852.6 C 21.5934 1852.57 20.978 1850.22 19.7555 1846.9 z"/>
<path transform="translate(0,0)" fill="rgb(92,54,36)" d="M 5.40267 20.1322 C 18.5233 19.3433 19.5837 26.319 13.3286 36.2705 C 9.65679 35.3874 6.31756 35.066 2.57651 34.6062 C 3.34021 29.0922 3.65738 25.47 5.40267 20.1322 z"/>
<path transform="translate(0,0)" fill="rgb(92,54,36)" d="M 55.6468 1357.89 C 48.7292 1356.8 47.3093 1357.11 46.0439 1350.74 C 48.7582 1343.13 59.5322 1344.76 63.3313 1350.85 C 62.8996 1354.25 63.6192 1352.85 61.1044 1355.18 L 55.6468 1357.89 z"/>
<path transform="translate(0,0)" fill="rgb(92,54,36)" d="M 15.3905 1873.41 C 14.4566 1873.1 34.2771 1881.7 32.8922 1880.67 L 32.2639 1883.39 L 33.7232 1882.72 C 31.2451 1883.72 31.4322 1883.68 28.7686 1883.44 C 20.2053 1882.09 18.1434 1887.61 11.4107 1884.23 L 10.9296 1882.14 C 12.2846 1877.5 12.4348 1877.34 15.3905 1873.41 z"/>
<path transform="translate(0,0)" fill="rgb(92,54,36)" d="M 12.1457 563.219 C 21.0403 566.928 21.9525 575.171 17.265 582.843 C 16.7551 580.748 16.2875 579.247 15.6142 577.196 C 12.6611 575.05 10.2101 573.755 8.53791 570.57 C 8.6489 566.89 9.79917 566.093 12.1457 563.219 z"/>
<path transform="translate(0,0)" fill="rgb(92,54,36)" d="M 47.1528 1106.34 C 49.0567 1106.95 48.5928 1106.86 50.2939 1108.06 C 51.5154 1112.13 52.2406 1117.89 49.3232 1121.36 C 45.0439 1118.96 45.0386 1119.08 43.7866 1114.62 C 44.6074 1110.28 44.7406 1110.13 47.1528 1106.34 z"/>
<path transform="translate(0,0)" fill="rgb(92,54,36)" d="M 54.9432 773.975 C 57.9158 776.121 57.7979 775.902 59.6153 779.056 C 59.9736 782.681 59.0958 783.506 57.2626 786.661 C 50.0177 784.91 51.2404 778.721 54.9432 773.975 z"/>
<path transform="translate(0,0)" fill="rgb(92,54,36)" d="M 13.3999 1508.37 C 15.2438 1507.11 17.7547 1507.56 19.0493 1509.38 C 20.3438 1511.19 19.9463 1513.71 18.1549 1515.05 C 16.9634 1515.93 15.3863 1516.1 14.0318 1515.5 C 12.6774 1514.89 11.7572 1513.6 11.6261 1512.12 C 11.495 1510.64 12.1735 1509.2 13.3999 1508.37 z"/>
<path transform="translate(0,0)" fill="rgb(92,54,36)" d="M 24.3386 512.709 C 28.0271 517.001 26.2437 520.596 22.1779 523.628 C 21.1915 522.343 20.3194 521.051 19.393 519.722 C 19.905 515.964 20.9498 516.149 24.3386 512.709 z"/>
<path transform="translate(0,0)" fill="rgb(235,235,235)" d="M 483.667 393.365 C 524.903 359.626 560.528 333.834 606.684 306.383 C 754.503 220.291 925.008 181.188 1095.57 194.262 C 1152.98 198.99 1195.58 207.851 1250.63 221.869 C 1264.13 225.352 1292.69 232.462 1305.01 239.18 C 1349.71 255.581 1383.93 271.641 1425.6 293.37 C 1429.89 295.382 1434.21 297.318 1438.56 299.175 C 1450.12 303.405 1462.47 310.799 1472.05 318.519 C 1474.55 320.257 1493.5 333.164 1494.18 334.16 C 1593.6 398.223 1689.25 497.221 1751.66 596.943 C 1763.05 612.432 1770.21 624.228 1778.16 641.977 C 1797.41 676.57 1822.73 729.564 1835.29 767.113 C 1840.22 781.743 1844.85 796.472 1849.17 811.29 C 1851.59 819.666 1856.43 837.87 1859.69 845.549 C 1864.01 857.444 1868.32 881.929 1869.76 895.033 C 1873.71 921.118 1881.49 961.651 1882.02 987.768 C 1883.51 995.212 1883.94 1011.7 1884.12 1019.78 C 1887.45 1045.63 1886.96 1097.78 1881.41 1122.66 C 1879.74 1143.22 1875.65 1189.24 1869.81 1208.14 C 1861.45 1253.99 1849.47 1299.11 1833.99 1343.07 C 1827.6 1366.85 1823.44 1371.61 1814.26 1393.08 C 1789.31 1448.84 1760.18 1503.11 1722.98 1551.78 C 1719.31 1556.58 1715.21 1561.69 1711.91 1566.69 C 1690.04 1603.43 1620.29 1674.54 1585.01 1699.87 C 1491.01 1776.33 1391.98 1832.1 1276.08 1867.24 C 1265.08 1870.58 1253.04 1872.85 1242.27 1876.55 C 1193.47 1890.98 1140.34 1898.58 1089.63 1902.22 C 1069.42 1903.54 1043.94 1906.12 1024.04 1905.82 C 993.265 1905.37 959.952 1901.75 928.998 1900.63 C 919.613 1900.29 906.369 1896.84 897.002 1894.74 C 876.993 1889.89 855.437 1888.16 835.533 1883.41 C 562.369 1818.3 321.266 1616.31 226.385 1348.1 C 218.266 1331.8 212.869 1309.98 207.699 1292.58 C 188.716 1228.68 173.321 1150.57 174.075 1083.91 C 173.485 1064.58 173.383 1045.24 173.768 1025.9 L 174.064 1007.57 C 175.14 997.983 174.996 984.121 175.42 974.11 C 176.148 956.899 177.797 946.034 181.403 929.62 C 183.343 923.495 185.935 908.122 187.3 901.197 C 195.281 858.519 203.029 824.227 217.169 783.169 C 218.65 773.858 228.337 750.598 232.174 741.575 C 253.988 688.862 280.406 638.174 311.122 590.101 C 314.093 582.756 331.148 559.084 336.881 552.771 C 343.581 542.269 360.003 522.456 367.955 512.15 C 392.977 479.722 420.221 449.625 449.997 421.494 C 459.029 412.962 473.579 401.879 483.667 393.365 z"/>
<path transform="translate(0,0)" fill="rgb(235,235,235)" d="M 483.667 393.365 C 524.903 359.626 560.528 333.834 606.684 306.383 C 754.503 220.291 925.008 181.188 1095.57 194.262 C 1152.98 198.99 1195.58 207.851 1250.63 221.869 L 1251.03 225.757 C 1201.23 210.709 1143.16 201.575 1091.41 196.766 C 1070.07 194.784 1046.92 195.652 1026.35 193.605 L 1023.57 193.723 L 1023.7 196.498 C 1023.82 200.108 1023.6 203.065 1024.9 206.414 L 1026.07 206.898 L 1026.3 207.885 C 1023.51 216.891 1020.61 231.507 1023.2 240.681 C 1022.6 242.487 1022.48 241.695 1023.15 243.082 C 1026.6 251.649 1023.84 369.685 1024.06 391.819 L 1025.72 390.545 L 1027.01 393.408 C 1026.92 412.783 1028.39 445.243 1027.15 463.159 L 1025.21 464.252 C 1025.03 466.918 1025.39 470.148 1024.11 471.733 C 1023.37 488.641 1022.98 505.563 1022.94 522.487 C 1022.88 529.583 1023.19 544.176 1022.49 550.773 C 1013.98 549.89 970.468 552.579 962.989 555.658 C 918.737 562.042 881.24 571.581 839.658 588.579 C 825.915 594.197 809.598 603.544 797.03 608.199 C 778.701 616.129 764.76 625.263 749.652 638.302 C 745.036 641.667 740.395 645.033 735.811 648.44 C 655.523 708.119 590.429 800.53 562.457 896.762 C 555.107 919.154 549.79 940.31 547.397 963.839 L 548.627 963.297 C 550.613 968.688 550.423 969.895 550.328 975.635 C 547.945 997.098 546.444 1019.37 547.377 1040.96 L 542.917 1040.45 C 542.702 1056.7 545.953 1106.59 551.767 1120 C 556.689 1139.1 561.346 1162.62 567.892 1180.68 C 608.779 1293.49 681.165 1379.36 783.901 1440.05 C 824.997 1464.09 869.725 1481.29 916.339 1490.98 C 934.343 1494.68 952.498 1497.6 970.754 1499.74 C 977.994 1500.6 1009.14 1501.61 1012.31 1503.86 C 1011.34 1505.93 1011.96 1505.23 1010.84 1506.24 C 1008.97 1510.08 1008.2 1510.92 1008.31 1515.02 L 1019.28 1505.6 C 1019.33 1520.2 1019.26 1533.71 1020.12 1548.31 C 1021.78 1540.79 1019.38 1509.81 1022.49 1506.84 C 1022.81 1510.44 1022.61 1513.13 1024.77 1516.15 C 1025.43 1535.26 1024.33 1558 1024 1577.5 C 1023.75 1592.59 1024.19 1608.75 1023.8 1623.47 C 1024.89 1681.26 1022.74 1785.72 1023.29 1847.53 C 1023.76 1848.07 1024.23 1848.62 1024.7 1849.17 C 1028.6 1849.28 1029.62 1848.54 1031.82 1850.52 C 1032.21 1863.05 1025.66 1885.84 1023.69 1899.85 C 1036.84 1899.82 1049.99 1899.66 1063.13 1899.35 C 1068.69 1899.21 1081.83 1898.45 1086.73 1898.91 L 1089.63 1902.22 C 1069.42 1903.54 1043.94 1906.12 1024.04 1905.82 C 993.265 1905.37 959.952 1901.75 928.998 1900.63 C 919.613 1900.29 906.369 1896.84 897.002 1894.74 C 876.993 1889.89 855.437 1888.16 835.533 1883.41 C 562.369 1818.3 321.266 1616.31 226.385 1348.1 C 218.266 1331.8 212.869 1309.98 207.699 1292.58 C 188.716 1228.68 173.321 1150.57 174.075 1083.91 C 173.485 1064.58 173.383 1045.24 173.768 1025.9 L 174.064 1007.57 C 175.14 997.983 174.996 984.121 175.42 974.11 C 176.148 956.899 177.797 946.034 181.403 929.62 C 183.343 923.495 185.935 908.122 187.3 901.197 C 195.281 858.519 203.029 824.227 217.169 783.169 C 218.65 773.858 228.337 750.598 232.174 741.575 C 253.988 688.862 280.406 638.174 311.122 590.101 C 314.093 582.756 331.148 559.084 336.881 552.771 C 343.581 542.269 360.003 522.456 367.955 512.15 C 392.977 479.722 420.221 449.625 449.997 421.494 C 459.029 412.962 473.579 401.879 483.667 393.365 z"/>
<path transform="translate(0,0)" fill="rgb(15,14,15)" d="M 226.385 1348.1 L 230.202 1347 C 325.154 1627.23 608.874 1853.25 901.201 1891.21 L 897.002 1894.74 C 876.993 1889.89 855.437 1888.16 835.533 1883.41 C 562.369 1818.3 321.266 1616.31 226.385 1348.1 z"/>
<path transform="translate(0,0)" fill="rgb(110,108,113)" d="M 1020.12 1548.31 C 1021.78 1540.79 1019.38 1509.81 1022.49 1506.84 C 1022.81 1510.44 1022.61 1513.13 1024.77 1516.15 C 1025.43 1535.26 1024.33 1558 1024 1577.5 C 1023.75 1592.59 1024.19 1608.75 1023.8 1623.47 C 1024.89 1681.26 1022.74 1785.72 1023.29 1847.53 C 1023.76 1848.07 1024.23 1848.62 1024.7 1849.17 C 1028.6 1849.28 1029.62 1848.54 1031.82 1850.52 C 1032.21 1863.05 1025.66 1885.84 1023.69 1899.85 C 1036.84 1899.82 1049.99 1899.66 1063.13 1899.35 C 1068.69 1899.21 1081.83 1898.45 1086.73 1898.91 L 1089.63 1902.22 C 1069.42 1903.54 1043.94 1906.12 1024.04 1905.82 C 993.265 1905.37 959.952 1901.75 928.998 1900.63 C 919.613 1900.29 906.369 1896.84 897.002 1894.74 L 901.201 1891.21 C 916.359 1891.03 1007.6 1905.71 1018.47 1898.65 C 1019.18 1895.81 1019.05 1895.64 1018.95 1892.66 C 1022.35 1888.15 1021.71 1891.11 1022.62 1885.26 C 1018.53 1878.05 1017.81 1863.89 1017.85 1855.61 L 1017.8 1848.54 L 1019.83 1849.06 C 1021.41 1847.18 1021.53 1844.66 1021.51 1842.17 C 1020.82 1764.51 1018.82 1686.12 1020.2 1608.47 C 1020 1591.57 1018.94 1564.68 1020.12 1548.31 z"/>
<path transform="translate(0,0)" fill="url(#Gradient15)" d="M 1020.12 1548.31 C 1021.78 1540.79 1019.38 1509.81 1022.49 1506.84 C 1022.81 1510.44 1022.61 1513.13 1024.77 1516.15 C 1025.43 1535.26 1024.33 1558 1024 1577.5 C 1023.75 1592.59 1024.19 1608.75 1023.8 1623.47 C 1022.69 1628.94 1023 1641.89 1022.84 1647.81 C 1022.32 1666.74 1023.38 1686.67 1021.96 1705.5 C 1020.64 1683.41 1021.73 1660.81 1021.13 1638.67 C 1020.86 1628.72 1021.47 1618.33 1020.2 1608.47 C 1020 1591.57 1018.94 1564.68 1020.12 1548.31 z"/>
<path transform="translate(0,0)" fill="rgb(235,235,235)" d="M 1017.85 1855.61 C 1020.75 1852.33 1019.65 1852.6 1023.2 1851.72 C 1029.74 1857.68 1024.39 1877.11 1022.62 1885.26 C 1018.53 1878.05 1017.81 1863.89 1017.85 1855.61 z"/>
<path transform="translate(0,0)" fill="rgb(15,14,15)" d="M 483.667 393.365 C 524.903 359.626 560.528 333.834 606.684 306.383 C 754.503 220.291 925.008 181.188 1095.57 194.262 C 1152.98 198.99 1195.58 207.851 1250.63 221.869 L 1251.03 225.757 C 1201.23 210.709 1143.16 201.575 1091.41 196.766 C 1070.07 194.784 1046.92 195.652 1026.35 193.605 L 1023.57 193.723 L 1022.37 193.89 C 1010.57 195.446 997.747 195.073 985.779 196.22 C 954.126 199.254 919.679 201.381 888.453 206.781 C 766.626 227.671 650.999 275.496 550.01 346.766 C 536.3 356.292 499.578 382.885 488.195 394.199 L 483.667 393.365 z"/>
<path transform="translate(0,0)" fill="url(#Gradient14)" d="M 174.075 1083.91 C 174.742 1087.3 175.989 1097.1 176.673 1099.52 C 178.159 1097.12 177.887 1093.45 178.015 1090.45 L 178.186 1091.34 C 183.105 1118.56 181.643 1150.09 186.687 1178.02 C 194.725 1222.51 203.358 1267.87 217.829 1310.84 C 221.946 1323.07 226.263 1334.83 230.202 1347 L 226.385 1348.1 C 218.266 1331.8 212.869 1309.98 207.699 1292.58 C 188.716 1228.68 173.321 1150.57 174.075 1083.91 z"/>
<path transform="translate(0,0)" fill="rgb(15,14,15)" d="M 547.397 963.839 L 548.627 963.297 C 550.613 968.688 550.423 969.895 550.328 975.635 C 547.945 997.098 546.444 1019.37 547.377 1040.96 L 542.917 1040.45 L 542.959 1026 C 478.324 1024.17 412.78 1024.08 348.049 1022.97 C 343.469 1022.5 337.69 1022.52 332.991 1022.4 L 332.485 1021.34 C 348.513 1021.67 366.403 1021.05 382.637 1021.03 L 477.414 1021.09 C 497.918 1020.96 522.912 1019.78 542.792 1021.1 C 543.341 1001.95 544.878 982.834 547.397 963.839 z"/>
<path transform="translate(0,0)" fill="rgb(64,62,65)" d="M 483.667 393.365 L 488.195 394.199 C 471.922 410.103 452.442 425.296 436.836 440.652 C 412.219 464.874 387.387 493.365 366.022 520.432 C 357.38 531.381 347.444 543.169 339.798 554.678 L 336.881 552.771 C 343.581 542.269 360.003 522.456 367.955 512.15 C 392.977 479.722 420.221 449.625 449.997 421.494 C 459.029 412.962 473.579 401.879 483.667 393.365 z"/>
<path transform="translate(0,0)" fill="rgb(64,62,65)" d="M 311.122 590.101 C 313.679 591.571 312.942 590.811 314.672 593.033 C 281.537 641.702 236.232 731.007 219.636 787.453 L 217.169 783.169 C 218.65 773.858 228.337 750.598 232.174 741.575 C 253.988 688.862 280.406 638.174 311.122 590.101 z"/>
<path transform="translate(0,0)" fill="url(#Gradient13)" d="M 200.889 1016.43 C 206.666 1015.3 221.076 1010.54 223.835 1010.8 C 230.483 1015.65 230.927 1035.69 219.944 1035.2 C 212.972 1034.89 201.683 1031.27 195.087 1028.55 L 195.82 1025.79 C 192.393 1024.08 191.872 1024.6 190.675 1021.89 C 193.108 1020.16 197.81 1019.87 201.006 1019.4 L 200.889 1016.43 z"/>
<path transform="translate(0,0)" fill="rgb(235,235,235)" d="M 201.006 1019.4 C 207.563 1018.62 218.728 1016.12 223.558 1019.77 C 224.381 1022.74 224.171 1022.61 223.264 1025.63 C 218.808 1029.04 202.662 1026.26 195.82 1025.79 C 192.393 1024.08 191.872 1024.6 190.675 1021.89 C 193.108 1020.16 197.81 1019.87 201.006 1019.4 z"/>
<path transform="translate(0,0)" fill="url(#Gradient12)" d="M 181.403 929.62 L 182.678 932.998 C 185.04 933.498 183.927 933.495 186.013 933.173 L 180.021 993.767 C 179.474 999.743 179.127 1012.28 178.103 1017.49 L 178.17 1020.68 L 177.376 1023.24 L 177.2 1028.01 L 173.768 1025.9 L 174.064 1007.57 C 175.14 997.983 174.996 984.121 175.42 974.11 C 176.148 956.899 177.797 946.034 181.403 929.62 z"/>
<path transform="translate(0,0)" fill="rgb(64,62,65)" d="M 174.064 1007.57 L 175.886 1005.4 L 177.196 1006.31 C 177.966 1010.87 178.009 1012.81 178.103 1017.49 L 178.17 1020.68 L 177.376 1023.24 L 177.2 1028.01 L 173.768 1025.9 L 174.064 1007.57 z"/>
<path transform="translate(0,0)" fill="rgb(15,14,15)" d="M 217.169 783.169 L 219.636 787.453 C 206.664 825.849 196.78 865.22 190.078 905.19 C 188.643 903.562 188.451 903.061 187.3 901.197 C 195.281 858.519 203.029 824.227 217.169 783.169 z"/>
<path transform="translate(0,0)" fill="rgb(138,136,139)" d="M 348.049 1022.97 C 338.773 1024.46 239.326 1024.96 232.554 1022.95 C 238.784 1021.69 262.548 1021.42 269.703 1021.47 C 289.58 1021.62 312.898 1020.25 332.485 1021.34 L 332.991 1022.4 C 337.69 1022.52 343.469 1022.5 348.049 1022.97 z"/>
<path transform="translate(0,0)" fill="rgb(110,108,113)" d="M 311.122 590.101 C 314.093 582.756 331.148 559.084 336.881 552.771 L 339.798 554.678 C 335.641 561.944 320.738 586.843 314.672 593.033 C 312.942 590.811 313.679 591.571 311.122 590.101 z"/>
<path transform="translate(0,0)" fill="rgb(15,14,15)" d="M 173.768 1025.9 L 177.2 1028.01 C 176.698 1048.88 177.441 1069.58 178.015 1090.45 C 177.887 1093.45 178.159 1097.12 176.673 1099.52 C 175.989 1097.1 174.742 1087.3 174.075 1083.91 C 173.485 1064.58 173.383 1045.24 173.768 1025.9 z"/>
<path transform="translate(0,0)" fill="rgb(64,62,65)" d="M 1024.06 391.819 L 1025.72 390.545 L 1027.01 393.408 C 1026.92 412.783 1028.39 445.243 1027.15 463.159 L 1025.21 464.252 C 1025.03 466.918 1025.39 470.148 1024.11 471.733 C 1023.59 464.898 1024.03 451.708 1024.05 444.468 L 1024.06 391.819 z"/>
<path transform="translate(0,0)" fill="rgb(138,136,139)" d="M 1017.8 1848.54 L 1017.85 1855.61 C 1017.81 1863.89 1018.53 1878.05 1022.62 1885.26 C 1021.71 1891.11 1022.35 1888.15 1018.95 1892.66 C 1018.86 1892.53 1011.57 1857.13 1010.39 1852.93 C 1012.93 1849.74 1013.42 1850.34 1017.8 1848.54 z"/>
<path transform="translate(0,0)" fill="url(#Gradient11)" d="M 1023.15 243.082 C 1020.03 243.526 1018.91 243.508 1015.83 243.519 C 1013.71 240.335 1023.2 209.059 1023.64 198.28 L 1023.7 196.498 C 1023.82 200.108 1023.6 203.065 1024.9 206.414 L 1026.07 206.898 L 1026.3 207.885 C 1023.51 216.891 1020.61 231.507 1023.2 240.681 C 1022.6 242.487 1022.48 241.695 1023.15 243.082 z"/>
<path transform="translate(0,0)" fill="rgb(64,62,65)" d="M 1010.84 1506.24 C 1008.97 1510.08 1008.2 1510.92 1008.31 1515.02 C 1004.75 1520.76 989.183 1531.16 983.139 1532.69 C 985.872 1527.24 1005.15 1510.3 1010.84 1506.24 z"/>
<path transform="translate(0,0)" fill="rgb(86,84,87)" d="M 187.3 901.197 C 188.451 903.061 188.643 903.562 190.078 905.19 C 189.815 914.131 187.151 924.201 186.013 933.173 C 183.927 933.495 185.04 933.498 182.678 932.998 L 181.403 929.62 C 183.343 923.495 185.935 908.122 187.3 901.197 z"/>
<path transform="translate(0,0)" fill="rgb(86,84,87)" d="M 178.17 1020.68 C 186.008 1021.16 193.237 1018.51 200.889 1016.43 L 201.006 1019.4 C 197.81 1019.87 193.108 1020.16 190.675 1021.89 C 191.872 1024.6 192.393 1024.08 195.82 1025.79 L 195.087 1028.55 L 177.376 1023.24 L 178.17 1020.68 z"/>
<path transform="translate(0,0)" fill="rgb(196,194,196)" d="M 686.936 1769.61 L 694.246 1774.82 C 684.246 1782.71 674.398 1790.8 664.706 1799.07 C 662.897 1799.66 663.166 1799.48 661.198 1799.53 L 660.107 1797.71 C 661.533 1790.44 675.615 1785.12 680.737 1779.53 C 683.247 1776.8 685.194 1772.88 686.936 1769.61 z"/>
<path transform="translate(0,0)" fill="rgb(216,215,217)" d="M 930.028 1573.92 C 932.44 1573.44 932.81 1573.67 935.294 1573.99 L 936.291 1575.58 C 933.417 1580.25 929.764 1581.54 926.818 1585.68 C 925.247 1587.89 923.788 1589.9 922.154 1592.09 C 917.57 1592 917.355 1592.8 914.472 1590.59 L 914.599 1588 C 918.079 1582.19 924.449 1577.64 930.028 1573.92 z"/>
<path transform="translate(0,0)" fill="rgb(216,215,217)" d="M 882.097 1606.87 C 885.461 1606.69 887.33 1606.26 890.398 1607.64 C 894.618 1612.86 889.735 1616.76 885.918 1620.68 C 882.411 1622.67 882.793 1622.83 879.481 1621.67 C 875.627 1616.5 878.005 1610.92 882.097 1606.87 z"/>
<path transform="translate(0,0)" fill="rgb(216,215,217)" d="M 812.259 1668.72 C 812.749 1668.87 814.766 1670.06 815.298 1670.36 C 820.553 1678.82 813.806 1682.48 806.801 1685.52 L 800.103 1678.87 C 805.015 1673.99 806.52 1672.63 812.259 1668.72 z"/>
<path transform="translate(0,0)" fill="rgb(216,215,217)" d="M 793.918 1684.8 C 796.775 1684.64 796.77 1684.51 799.478 1685.28 L 800.291 1686.82 C 799.243 1691.89 794.48 1696.09 790.84 1699.93 C 786.413 1700.19 784.382 1699.18 783.598 1695.15 C 785.836 1688.56 787.671 1688.13 793.918 1684.8 z"/>
<path transform="translate(0,0)" fill="rgb(216,215,217)" d="M 773.854 1702.96 L 775.632 1704.29 C 777.493 1712.52 768.447 1715.3 762.022 1716.06 C 755.848 1710.58 769.957 1704.95 773.854 1702.96 z"/>
<path transform="translate(0,0)" fill="rgb(216,215,217)" d="M 904.652 1592.52 L 906.364 1593.15 C 907.409 1596.4 906.567 1602.88 905.894 1606.33 L 904.158 1607.12 C 901.633 1604.37 900.953 1603.91 899.629 1600.32 C 899.98 1596.68 902.058 1595.25 904.652 1592.52 z"/>
<path transform="translate(0,0)" fill="rgb(235,235,235)" d="M 1878.09 987.667 C 1880.51 992.387 1880.58 994.961 1881.27 1000.11 C 1881.43 995.836 1881.62 992.025 1882.02 987.768 C 1883.51 995.212 1883.94 1011.7 1884.12 1019.78 C 1887.45 1045.63 1886.96 1097.78 1881.41 1122.66 C 1879.74 1143.22 1875.65 1189.24 1869.81 1208.14 C 1861.45 1253.99 1849.47 1299.11 1833.99 1343.07 C 1827.6 1366.85 1823.44 1371.61 1814.26 1393.08 C 1789.31 1448.84 1760.18 1503.11 1722.98 1551.78 C 1719.31 1556.58 1715.21 1561.69 1711.91 1566.69 C 1690.04 1603.43 1620.29 1674.54 1585.01 1699.87 C 1491.01 1776.33 1391.98 1832.1 1276.08 1867.24 C 1265.08 1870.58 1253.04 1872.85 1242.27 1876.55 C 1193.47 1890.98 1140.34 1898.58 1089.63 1902.22 L 1086.73 1898.91 C 1081.83 1898.45 1068.69 1899.21 1063.13 1899.35 C 1049.99 1899.66 1036.84 1899.82 1023.69 1899.85 C 1025.66 1885.84 1032.21 1863.05 1031.82 1850.52 C 1029.62 1848.54 1028.6 1849.28 1024.7 1849.17 C 1024.23 1848.62 1023.76 1848.07 1023.29 1847.53 C 1022.74 1785.72 1024.89 1681.26 1023.8 1623.47 C 1024.19 1608.75 1023.75 1592.59 1024 1577.5 C 1024.33 1558 1025.43 1535.26 1024.77 1516.15 L 1024.45 1502.7 C 1041.27 1502.37 1059.57 1502.07 1076.29 1500.21 C 1181.35 1488.5 1280.02 1446.02 1356.97 1372.78 C 1374.49 1356.1 1390.49 1336.79 1405.52 1317.88 L 1402.73 1314.09 C 1412.24 1298.74 1425.81 1281.45 1436.25 1265.28 C 1471.21 1210.55 1498.4 1120.78 1500.05 1056.3 C 1501.26 1052.23 1502.57 1051.61 1504.1 1045.71 C 1504.86 1043.71 1505.74 1029.36 1506.03 1026.03 C 1509.42 1026.19 1514.96 1026.92 1517.77 1025.52 C 1605.67 1021.31 1697.54 1025.77 1785.84 1022.66 C 1789.98 1022.52 1796.38 1023.82 1799.96 1022.89 L 1800.58 1021.27 C 1802.09 1021.88 1802.49 1021.88 1803.64 1023.05 L 1804.89 1022.24 L 1804.44 1020.7 L 1805.45 1019.6 C 1811.37 1019.44 1814.17 1022.48 1819.46 1021.98 C 1821.43 1021.8 1821.5 1021.69 1823.34 1022.02 L 1823.97 1023.53 C 1826.25 1024.15 1827.14 1024.39 1829.47 1024.68 C 1831.1 1026.72 1830.69 1027.54 1830.73 1030.31 C 1836.69 1034.86 1868.89 1023.95 1879.21 1025.65 L 1879.97 1025.6 C 1880.06 1022.45 1880.31 1024 1878.69 1020.9 C 1879.91 1013.18 1878.6 996.13 1878.09 987.667 z"/>
<path transform="translate(0,0)" fill="rgb(15,14,15)" d="M 1583.69 1696.29 L 1585.01 1699.87 C 1491.01 1776.33 1391.98 1832.1 1276.08 1867.24 C 1265.08 1870.58 1253.04 1872.85 1242.27 1876.55 L 1238.16 1874.15 C 1364.25 1839.1 1484.49 1783.28 1583.69 1696.29 z"/>
<path transform="translate(0,0)" fill="url(#Gradient10)" d="M 1583.69 1696.29 C 1585.97 1693.41 1592.49 1688 1595.55 1685.18 C 1635.98 1648 1676.97 1607.51 1709.7 1563.28 L 1711.91 1566.69 C 1690.04 1603.43 1620.29 1674.54 1585.01 1699.87 L 1583.69 1696.29 z"/>
<path transform="translate(0,0)" fill="rgb(15,14,15)" d="M 1500.05 1056.3 C 1501.26 1052.23 1502.57 1051.61 1504.1 1045.71 C 1503.26 1123.91 1479.94 1198.42 1441.17 1265.77 L 1436.25 1265.28 C 1471.21 1210.55 1498.4 1120.78 1500.05 1056.3 z"/>
<path transform="translate(0,0)" fill="url(#Gradient9)" d="M 1878.09 987.667 C 1880.51 992.387 1880.58 994.961 1881.27 1000.11 C 1881.43 995.836 1881.62 992.025 1882.02 987.768 C 1883.51 995.212 1883.94 1011.7 1884.12 1019.78 C 1887.45 1045.63 1886.96 1097.78 1881.41 1122.66 L 1880.53 1120.23 C 1880.22 1123.67 1880.7 1122.55 1879.17 1125.39 L 1876.97 1124.06 C 1878.64 1103.99 1878.19 1082.92 1878.42 1062.72 C 1878.56 1050.33 1879.31 1037.93 1879.21 1025.65 L 1879.97 1025.6 C 1880.06 1022.45 1880.31 1024 1878.69 1020.9 C 1879.91 1013.18 1878.6 996.13 1878.09 987.667 z"/>
<path transform="translate(0,0)" fill="url(#Gradient8)" d="M 1878.09 987.667 C 1880.51 992.387 1880.58 994.961 1881.27 1000.11 C 1881.43 995.836 1881.62 992.025 1882.02 987.768 C 1883.51 995.212 1883.94 1011.7 1884.12 1019.78 C 1884.15 1026.2 1884.66 1032.48 1882.56 1038.5 L 1881.51 1038.78 C 1879.62 1034.52 1880.04 1030.35 1879.97 1025.6 C 1880.06 1022.45 1880.31 1024 1878.69 1020.9 C 1879.91 1013.18 1878.6 996.13 1878.09 987.667 z"/>
<path transform="translate(0,0)" fill="rgb(15,14,15)" d="M 1812.41 1387.25 C 1813.24 1389.53 1813.76 1390.67 1814.26 1393.08 C 1789.31 1448.84 1760.18 1503.11 1722.98 1551.78 C 1719.31 1556.58 1715.21 1561.69 1711.91 1566.69 L 1709.7 1563.28 C 1751.6 1509.42 1786.14 1450.22 1812.41 1387.25 z"/>
<path transform="translate(0,0)" fill="url(#Gradient7)" d="M 1086.73 1898.91 C 1116.03 1895.87 1145.98 1892.39 1175 1887.32 C 1195.36 1883.75 1217.89 1877.04 1238.16 1874.15 L 1242.27 1876.55 C 1193.47 1890.98 1140.34 1898.58 1089.63 1902.22 L 1086.73 1898.91 z"/>
<path transform="translate(0,0)" fill="rgb(15,14,15)" d="M 1868.15 1195.27 C 1869.14 1193.12 1869.76 1191.72 1870.96 1189.66 C 1872.17 1194.23 1868.76 1200.94 1869.81 1208.14 C 1861.45 1253.99 1849.47 1299.11 1833.99 1343.07 C 1832.74 1343.45 1831.99 1343.11 1830.48 1342.89 C 1846.58 1297.62 1861.51 1242.76 1868.15 1195.27 z"/>
<path transform="translate(0,0)" fill="url(#Gradient6)" d="M 1876.97 1124.06 L 1879.17 1125.39 C 1880.7 1122.55 1880.22 1123.67 1880.53 1120.23 L 1881.41 1122.66 C 1879.74 1143.22 1875.65 1189.24 1869.81 1208.14 C 1868.76 1200.94 1872.17 1194.23 1870.96 1189.66 C 1869.76 1191.72 1869.14 1193.12 1868.15 1195.27 L 1876.97 1124.06 z"/>
<path transform="translate(0,0)" fill="rgb(64,62,65)" d="M 1436.25 1265.28 L 1441.17 1265.77 C 1429.56 1287.89 1421.83 1299.09 1405.52 1317.88 L 1402.73 1314.09 C 1412.24 1298.74 1425.81 1281.45 1436.25 1265.28 z"/>
<path transform="translate(0,0)" fill="rgb(110,108,113)" d="M 1830.48 1342.89 C 1831.99 1343.11 1832.74 1343.45 1833.99 1343.07 C 1827.6 1366.85 1823.44 1371.61 1814.26 1393.08 C 1813.76 1390.67 1813.24 1389.53 1812.41 1387.25 C 1814.67 1378.04 1825.93 1352.08 1830.48 1342.89 z"/>
<path transform="translate(0,0)" fill="rgb(235,235,235)" d="M 1023.57 193.723 L 1026.35 193.605 C 1046.92 195.652 1070.07 194.784 1091.41 196.766 C 1143.16 201.575 1201.23 210.709 1251.03 225.757 L 1250.63 221.869 C 1264.13 225.352 1292.69 232.462 1305.01 239.18 C 1349.71 255.581 1383.93 271.641 1425.6 293.37 C 1429.89 295.382 1434.21 297.318 1438.56 299.175 C 1450.12 303.405 1462.47 310.799 1472.05 318.519 C 1474.55 320.257 1493.5 333.164 1494.18 334.16 C 1593.6 398.223 1689.25 497.221 1751.66 596.943 C 1763.05 612.432 1770.21 624.228 1778.16 641.977 C 1797.41 676.57 1822.73 729.564 1835.29 767.113 C 1840.22 781.743 1844.85 796.472 1849.17 811.29 C 1851.59 819.666 1856.43 837.87 1859.69 845.549 C 1864.01 857.444 1868.32 881.929 1869.76 895.033 C 1873.71 921.118 1881.49 961.651 1882.02 987.768 C 1881.62 992.025 1881.43 995.836 1881.27 1000.11 C 1880.58 994.961 1880.51 992.387 1878.09 987.667 C 1878.6 996.13 1879.91 1013.18 1878.69 1020.9 C 1880.31 1024 1880.06 1022.45 1879.97 1025.6 L 1879.21 1025.65 C 1868.89 1023.95 1836.69 1034.86 1830.73 1030.31 C 1830.69 1027.54 1831.1 1026.72 1829.47 1024.68 C 1827.14 1024.39 1826.25 1024.15 1823.97 1023.53 L 1823.34 1022.02 C 1821.5 1021.69 1821.43 1021.8 1819.46 1021.98 C 1814.17 1022.48 1811.37 1019.44 1805.45 1019.6 L 1804.44 1020.7 L 1804.89 1022.24 L 1803.64 1023.05 C 1802.49 1021.88 1802.09 1021.88 1800.58 1021.27 L 1799.96 1022.89 C 1796.38 1023.82 1789.98 1022.52 1785.84 1022.66 C 1697.54 1025.77 1605.67 1021.31 1517.77 1025.52 C 1513.71 1025.63 1508.29 1026.39 1505.44 1023.22 C 1508 1020.09 1509.12 1020.62 1513.73 1020.13 C 1510.44 1020 1509.84 1020.14 1506.65 1019.1 C 1504.76 1010.57 1505.12 1001.77 1504.33 993.38 C 1502.95 978.769 1500.06 945.859 1495.24 932.926 L 1494.61 933.253 C 1492.71 930.841 1493.84 931.835 1490.84 930.702 C 1489.15 925.355 1487.41 913.699 1485.5 906.991 C 1481.18 891.77 1476.44 877.139 1470.91 862.305 C 1435.88 769.873 1372.92 690.65 1290.79 635.647 C 1280.95 630.955 1264.75 618.077 1254.51 612.953 C 1234.16 602.769 1212.77 593.332 1192.1 583.765 C 1165.89 573.425 1121.48 564.054 1093.77 560.092 L 1082.5 558.847 L 1080.66 557.476 L 1080.85 554.55 C 1072.14 551.355 1050.58 550.942 1040.81 550.809 L 1036.89 551.126 C 1031.77 553.82 1026.71 555.401 1022.49 550.773 C 1023.19 544.176 1022.88 529.583 1022.94 522.487 C 1022.98 505.563 1023.37 488.641 1024.11 471.733 C 1025.39 470.148 1025.03 466.918 1025.21 464.252 L 1027.15 463.159 C 1028.39 445.243 1026.92 412.783 1027.01 393.408 L 1025.72 390.545 L 1024.06 391.819 C 1023.84 369.685 1026.6 251.649 1023.15 243.082 C 1022.48 241.695 1022.6 242.487 1023.2 240.681 C 1020.61 231.507 1023.51 216.891 1026.3 207.885 L 1026.07 206.898 L 1024.9 206.414 C 1023.6 203.065 1023.82 200.108 1023.7 196.498 L 1023.57 193.723 z"/>
<path transform="translate(0,0)" fill="rgb(15,14,15)" d="M 1290.79 635.647 C 1293.24 635.674 1296.36 635.604 1298.73 635.835 C 1396.21 705.644 1474.16 813.691 1495.24 932.926 L 1494.61 933.253 C 1492.71 930.841 1493.84 931.835 1490.84 930.702 C 1489.15 925.355 1487.41 913.699 1485.5 906.991 C 1481.18 891.77 1476.44 877.139 1470.91 862.305 C 1435.88 769.873 1372.92 690.65 1290.79 635.647 z"/>
<path transform="translate(0,0)" fill="rgb(15,14,15)" d="M 1491.09 336.322 L 1494.18 334.16 C 1593.6 398.223 1689.25 497.221 1751.66 596.943 L 1748.85 598.669 C 1695.63 507.311 1581.26 390.994 1491.09 336.322 z"/>
<path transform="translate(0,0)" fill="rgb(64,62,65)" d="M 1513.73 1020.13 L 1710.74 1021.23 L 1768.42 1021.36 C 1777.88 1021.39 1791.64 1021.86 1800.58 1021.27 L 1799.96 1022.89 C 1796.38 1023.82 1789.98 1022.52 1785.84 1022.66 C 1697.54 1025.77 1605.67 1021.31 1517.77 1025.52 C 1513.71 1025.63 1508.29 1026.39 1505.44 1023.22 C 1508 1020.09 1509.12 1020.62 1513.73 1020.13 z"/>
<path transform="translate(0,0)" fill="rgb(138,136,139)" d="M 1023.57 193.723 L 1026.35 193.605 C 1030.36 210.051 1032.9 228.104 1037.07 243.692 L 1026.24 243.376 C 1026.71 275.387 1026.96 307.401 1026.98 339.416 C 1027 356.139 1027.6 376.932 1027.01 393.408 L 1025.72 390.545 L 1024.06 391.819 C 1023.84 369.685 1026.6 251.649 1023.15 243.082 C 1022.48 241.695 1022.6 242.487 1023.2 240.681 C 1020.61 231.507 1023.51 216.891 1026.3 207.885 L 1026.07 206.898 L 1024.9 206.414 C 1023.6 203.065 1023.82 200.108 1023.7 196.498 L 1023.57 193.723 z"/>
<path transform="translate(0,0)" fill="rgb(235,235,235)" d="M 1023.2 240.681 C 1020.61 231.507 1023.51 216.891 1026.3 207.885 C 1027.92 217.707 1032.25 228.893 1029.83 237.527 C 1028.11 239.849 1026.09 239.935 1023.2 240.681 z"/>
<path transform="translate(0,0)" fill="rgb(64,62,65)" d="M 1194.06 580.605 C 1215.86 587.036 1236.61 597.983 1256.3 609.129 C 1264.19 602.961 1267.62 600.494 1271.59 590.882 C 1272.01 589.852 1278.07 589.307 1280.03 589.075 C 1282.93 586.515 1282.01 587.289 1282.81 582.422 L 1284.92 585.093 C 1283.82 592.645 1267.48 603.948 1261.58 611.772 C 1278.5 620.995 1283.34 623.75 1298.73 635.835 C 1296.36 635.604 1293.24 635.674 1290.79 635.647 C 1280.95 630.955 1264.75 618.077 1254.51 612.953 C 1234.16 602.769 1212.77 593.332 1192.1 583.765 L 1194.06 580.605 z"/>
<path transform="translate(0,0)" fill="rgb(15,14,15)" d="M 1775.53 644.181 L 1778.16 641.977 C 1797.41 676.57 1822.73 729.564 1835.29 767.113 C 1840.22 781.743 1844.85 796.472 1849.17 811.29 C 1851.59 819.666 1856.43 837.87 1859.69 845.549 L 1855.09 846.763 C 1843.05 786.713 1805.45 696.968 1775.53 644.181 z"/>
<path transform="translate(0,0)" fill="rgb(110,108,113)" d="M 1823.34 1022.02 C 1827.86 1021.26 1828.19 1023.37 1831.6 1019.15 C 1831.28 1017.24 1830.81 1015.42 1830.26 1013.57 L 1831.14 1012.06 C 1839 1011.34 1868.66 1018.72 1878.69 1020.9 C 1880.31 1024 1880.06 1022.45 1879.97 1025.6 L 1879.21 1025.65 C 1868.89 1023.95 1836.69 1034.86 1830.73 1030.31 C 1830.69 1027.54 1831.1 1026.72 1829.47 1024.68 C 1827.14 1024.39 1826.25 1024.15 1823.97 1023.53 L 1823.34 1022.02 z"/>
<path transform="translate(0,0)" fill="rgb(235,235,235)" d="M 1833.98 1016.05 C 1841.18 1015.85 1861.22 1017.33 1866.04 1023.19 L 1863.23 1024.41 C 1855.89 1026.05 1837.18 1031.32 1832.64 1024.76 C 1832.47 1020.63 1832.78 1020.11 1833.98 1016.05 z"/>
<path transform="translate(0,0)" fill="url(#Gradient5)" d="M 1024.11 471.733 C 1025.39 470.148 1025.03 466.918 1025.21 464.252 L 1027.15 463.159 C 1028.01 481.307 1027.79 499.901 1028.01 518.082 C 1028.13 527.716 1027.33 539.987 1028.43 549.178 C 1030.82 551.185 1033.61 550.893 1036.89 551.126 C 1031.77 553.82 1026.71 555.401 1022.49 550.773 C 1023.19 544.176 1022.88 529.583 1022.94 522.487 C 1022.98 505.563 1023.37 488.641 1024.11 471.733 z"/>
<path transform="translate(0,0)" fill="rgb(15,14,15)" d="M 1302.94 241.771 C 1303.37 240.843 1304.27 240.015 1305.01 239.18 C 1349.71 255.581 1383.93 271.641 1425.6 293.37 L 1423.5 295.395 C 1382.63 272.144 1345.34 259.241 1302.94 241.771 z"/>
<path transform="translate(0,0)" fill="rgb(15,14,15)" d="M 1865.57 892.027 L 1867.5 891.739 L 1869.76 895.033 C 1873.71 921.118 1881.49 961.651 1882.02 987.768 C 1881.62 992.025 1881.43 995.836 1881.27 1000.11 C 1880.58 994.961 1880.51 992.387 1878.09 987.667 C 1875.69 955.58 1871.51 923.651 1865.57 892.027 z"/>
<path transform="translate(0,0)" fill="rgb(15,14,15)" d="M 1092.71 556.648 C 1129.23 561.038 1159.16 568.58 1194.06 580.605 L 1192.1 583.765 C 1165.89 573.425 1121.48 564.054 1093.77 560.092 C 1093.08 559.609 1092.17 558.696 1091.52 558.093 L 1092.71 556.648 z"/>
<path transform="translate(0,0)" fill="rgb(86,84,87)" d="M 1250.63 221.869 C 1264.13 225.352 1292.69 232.462 1305.01 239.18 C 1304.27 240.015 1303.37 240.843 1302.94 241.771 C 1283.94 236.598 1269.66 232.152 1251.03 225.757 L 1250.63 221.869 z"/>
<path transform="translate(0,0)" fill="url(#Gradient4)" d="M 1859.69 845.549 C 1864.01 857.444 1868.32 881.929 1869.76 895.033 L 1867.5 891.739 L 1865.57 892.027 C 1863.2 885.248 1856.42 854.066 1855.09 846.763 L 1859.69 845.549 z"/>
<path transform="translate(0,0)" fill="rgb(138,136,139)" d="M 1438.56 299.175 C 1450.12 303.405 1462.47 310.799 1472.05 318.519 C 1468.07 317.884 1467.46 317.022 1464.69 318.548 C 1465.13 319.766 1465.21 320.205 1465.88 321.313 C 1456.04 316.114 1444.33 310.124 1435.88 302.999 L 1438.56 299.175 z"/>
<path transform="translate(0,0)" fill="rgb(86,84,87)" d="M 1751.66 596.943 C 1763.05 612.432 1770.21 624.228 1778.16 641.977 L 1775.53 644.181 C 1766.75 628.941 1757.86 613.77 1748.85 598.669 L 1751.66 596.943 z"/>
<path transform="translate(0,0)" fill="rgb(110,108,113)" d="M 1465.88 321.313 C 1465.21 320.205 1465.13 319.766 1464.69 318.548 C 1467.46 317.022 1468.07 317.884 1472.05 318.519 C 1474.55 320.257 1493.5 333.164 1494.18 334.16 L 1491.09 336.322 C 1482.75 331.212 1474.34 326.209 1465.88 321.313 z"/>
<path transform="translate(0,0)" fill="rgb(86,84,87)" d="M 1425.6 293.37 C 1429.89 295.382 1434.21 297.318 1438.56 299.175 L 1435.88 302.999 C 1432.92 300.737 1426.9 297.412 1423.5 295.395 L 1425.6 293.37 z"/>
<path transform="translate(0,0)" fill="rgb(64,62,65)" d="M 1080.85 554.55 C 1082.94 554.869 1091.35 555.96 1092.71 556.648 L 1091.52 558.093 C 1092.17 558.696 1093.08 559.609 1093.77 560.092 L 1082.5 558.847 L 1080.66 557.476 L 1080.85 554.55 z"/>
<path transform="translate(0,0)" fill="rgb(235,235,235)" d="M 1456.63 392.604 C 1461.63 398.37 1450.43 410.12 1446.3 414.145 L 1443.96 410.401 C 1443.68 404.995 1451.93 398.439 1456.63 392.604 z"/>
<path transform="translate(0,0)" fill="rgb(235,235,235)" d="M 1334.85 522.772 C 1337.82 525.537 1337.25 523.981 1337.96 527.221 C 1335.89 531.473 1330.55 535.979 1326.85 540.48 C 1324.63 538.183 1323.87 537.878 1323.16 534.791 C 1324.96 530.057 1330.55 526.487 1334.85 522.772 z"/>
<path transform="translate(0,0)" fill="rgb(235,235,235)" d="M 1314.52 542.701 C 1316.95 542.526 1316.88 542.633 1319.24 543.348 C 1322.82 549.307 1319.83 552.017 1314.79 554.841 L 1311.02 553.442 C 1308.48 550.377 1309.04 552.043 1308.76 548.479 C 1310.85 544.132 1309.92 545.587 1314.52 542.701 z"/>
<path transform="translate(0,0)" fill="rgb(235,235,235)" d="M 1386.05 461.636 C 1390.25 462.383 1394.27 461.982 1397.6 463.604 C 1397.85 466.472 1396.98 466.383 1394.61 469.458 C 1391.36 472.241 1392.29 472.383 1389.11 472.26 C 1386.75 469.616 1386.61 465.332 1386.05 461.636 z"/>
<path transform="translate(0,0)" fill="rgb(15,14,15)" d="M 551.767 1120 C 556.479 1122.15 555.734 1123.46 558.244 1129.38 L 558.917 1131.27 C 561.28 1138.08 562.307 1146.34 564.26 1153.4 C 594.48 1262.63 666.772 1359.2 761.573 1420.95 C 775.931 1430.3 790.053 1439.59 805.423 1447.29 C 923.462 1505.58 1059.84 1514.54 1184.49 1472.18 C 1271.43 1442.54 1347.46 1387.46 1402.73 1314.09 L 1405.52 1317.88 C 1390.49 1336.79 1374.49 1356.1 1356.97 1372.78 C 1280.02 1446.02 1181.35 1488.5 1076.29 1500.21 C 1059.57 1502.07 1041.27 1502.37 1024.45 1502.7 L 1024.77 1516.15 C 1022.61 1513.13 1022.81 1510.44 1022.49 1506.84 C 1019.38 1509.81 1021.78 1540.79 1020.12 1548.31 C 1019.26 1533.71 1019.33 1520.2 1019.28 1505.6 L 1008.31 1515.02 C 1008.2 1510.92 1008.97 1510.08 1010.84 1506.24 C 1011.96 1505.23 1011.34 1505.93 1012.31 1503.86 C 1009.14 1501.61 977.994 1500.6 970.754 1499.74 C 952.498 1497.6 934.343 1494.68 916.339 1490.98 C 869.725 1481.29 824.997 1464.09 783.901 1440.05 C 681.165 1379.36 608.779 1293.49 567.892 1180.68 C 561.346 1162.62 556.689 1139.1 551.767 1120 z"/>
<path transform="translate(0,0)" fill="rgb(15,14,15)" d="M 749.652 638.302 L 751.715 641.922 C 677.014 692.622 617.851 770.552 582.377 853.164 C 576.564 866.702 570.805 881.631 566.953 895.818 L 562.457 896.762 C 590.429 800.53 655.523 708.119 735.811 648.44 C 740.395 645.033 745.036 641.667 749.652 638.302 z"/>
<path transform="translate(0,0)" fill="url(#Gradient3)" d="M 1490.84 930.702 C 1493.84 931.835 1492.71 930.841 1494.61 933.253 L 1495.24 932.926 C 1500.06 945.859 1502.95 978.769 1504.33 993.38 C 1505.12 1001.77 1504.76 1010.57 1506.65 1019.1 C 1509.84 1020.14 1510.44 1020 1513.73 1020.13 C 1509.12 1020.62 1508 1020.09 1505.44 1023.22 C 1508.29 1026.39 1513.71 1025.63 1517.77 1025.52 C 1514.96 1026.92 1509.42 1026.19 1506.03 1026.03 C 1505.74 1029.36 1504.86 1043.71 1504.1 1045.71 C 1502.57 1051.61 1501.26 1052.23 1500.05 1056.3 C 1500.85 1014.24 1497.77 972.195 1490.84 930.702 z"/>
<path transform="translate(0,0)" fill="rgb(15,14,15)" d="M 797.03 608.199 C 809.598 603.544 825.915 594.197 839.658 588.579 C 881.24 571.581 918.737 562.042 962.989 555.658 L 963.266 557.589 C 960.693 559.529 960.509 559.24 957.331 560.163 C 913.27 567.826 880.111 575.262 839.095 593.676 C 826.798 599.197 812.294 604.23 800.426 611.237 L 797.03 608.199 z"/>
<path transform="translate(0,0)" fill="rgb(86,84,87)" d="M 547.377 1040.96 C 548.685 1059 551.202 1077.61 553.452 1095.6 C 554.812 1106.48 557.922 1118.59 558.244 1129.38 C 555.734 1123.46 556.479 1122.15 551.767 1120 C 545.953 1106.59 542.702 1056.7 542.917 1040.45 L 547.377 1040.96 z"/>
<path transform="translate(0,0)" fill="rgb(110,108,113)" d="M 962.989 555.658 C 970.468 552.579 1013.98 549.89 1022.49 550.773 C 1026.71 555.401 1031.77 553.82 1036.89 551.126 L 1040.81 550.809 L 1040.18 555.097 C 1034.68 559.155 1020.01 554.7 1010.4 557.74 C 993.752 557.72 970.244 560.506 957.331 560.163 C 960.509 559.24 960.693 559.529 963.266 557.589 L 962.989 555.658 z"/>
<path transform="translate(0,0)" fill="url(#Gradient2)" d="M 562.457 896.762 L 566.953 895.818 C 563.406 910.051 560.157 923.137 557.344 937.416 C 556.137 943.541 551.803 971.93 550.328 975.635 C 550.423 969.895 550.613 968.688 548.627 963.297 L 547.397 963.839 C 549.79 940.31 555.107 919.154 562.457 896.762 z"/>
<path transform="translate(0,0)" fill="rgb(110,108,113)" d="M 749.652 638.302 C 764.76 625.263 778.701 616.129 797.03 608.199 L 800.426 611.237 C 782.681 623.432 769.786 630.841 751.715 641.922 L 749.652 638.302 z"/>
<path transform="translate(0,0)" fill="url(#Gradient1)" d="M 1040.81 550.809 C 1050.58 550.942 1072.14 551.355 1080.85 554.55 L 1080.66 557.476 L 1082.5 558.847 C 1058.47 558.131 1034.44 557.762 1010.4 557.74 C 1020.01 554.7 1034.68 559.155 1040.18 555.097 L 1040.81 550.809 z"/>
<path transform="translate(0,0)" fill="rgb(216,215,217)" d="M 589.545 1850.25 L 590.115 1849.56 C 599.418 1838.5 603.519 1836.91 617.043 1835.25 C 619.804 1836.42 619.337 1835.56 620.191 1837.41 C 617.317 1837.99 616.481 1838.16 613.575 1838.28 C 610.367 1841.27 610.415 1840.54 604.916 1840.77 C 602.795 1842.91 603.416 1841.63 603.221 1844.83 C 610.383 1852.9 615.662 1844.15 622.047 1839.07 L 622.897 1839.87 C 615.982 1846.35 601.664 1862.54 594.531 1864.59 C 591.812 1862.25 595.455 1860.76 585.822 1861.49 L 584.92 1861.56 C 582.234 1860.23 583.024 1861.28 582.129 1858.64 C 584.235 1856.02 587.255 1852.82 589.545 1850.25 z"/>
<path transform="translate(0,0)" fill="rgb(196,194,196)" d="M 589.545 1850.25 C 595.211 1851.5 599.214 1854.72 603.857 1858.23 C 597.829 1858.71 587.069 1860.47 582.129 1858.64 C 584.235 1856.02 587.255 1852.82 589.545 1850.25 z"/>
<path transform="translate(0,0)" fill="rgb(216,215,217)" d="M 1525.16 307.967 C 1529.27 308.126 1537.76 309.942 1541.6 311.679 L 1541.84 313.188 L 1538.9 316.654 C 1536.91 318.284 1538.03 317.691 1535.54 318.42 C 1531.26 316.266 1526.18 312.748 1525.16 307.967 z"/>
<path transform="translate(0,0)" fill="rgb(216,215,217)" d="M 1500.61 1855.35 C 1503.62 1855.63 1502.35 1855 1504.67 1856.8 C 1506.21 1862.5 1505.89 1868.16 1503.64 1873.62 C 1501.51 1872.35 1502.04 1872.66 1500.26 1870.86 C 1498.82 1865.1 1498.65 1861 1500.61 1855.35 z"/>
<path transform="translate(0,0)" fill="rgb(196,194,196)" d="M 622.366 1821.16 C 624.728 1821.25 624.669 1821.33 626.902 1822.2 C 628.962 1824.54 629.025 1824.65 629.431 1827.82 L 630.159 1833.65 C 626.771 1833.21 623.998 1833.06 621.707 1830.6 C 620.335 1827.19 621.447 1824.83 622.366 1821.16 z"/>
<path transform="translate(0,0)" fill="rgb(196,194,196)" d="M 1541.48 295.566 C 1545.73 295.682 1547.79 295.25 1550.55 297.596 C 1550.7 300.67 1548.62 303.027 1546.87 305.791 C 1545.88 307.545 1546.21 306.979 1544.58 308.346 L 1543.05 307.076 C 1541.4 302.421 1541.64 300.627 1541.48 295.566 z"/>
<path transform="translate(0,0)" fill="rgb(216,215,217)" d="M 1912.38 1020.84 C 1916.22 1020.77 1919.25 1020.11 1921.43 1023.4 L 1920.46 1026.41 C 1917.65 1027.34 1916.24 1028.13 1913.37 1027.46 C 1911.55 1024.66 1912.22 1024.97 1912.38 1020.84 z"/>
<path transform="translate(0,0)" fill="rgb(216,215,217)" d="M 1511.86 329.509 C 1514.69 331.173 1517.2 332.161 1518.73 334.948 L 1517.51 338.488 C 1513.2 338.598 1514.96 339.26 1511.85 337.082 C 1510.63 334.255 1511.3 332.568 1511.86 329.509 z"/>
</svg>